<?xml version="1.0" encoding="utf-8"?>
<!-- Generator: Adobe Illustrator 23.0.2, SVG Export Plug-In . SVG Version: 6.00 Build 0)  -->
<svg version="1.1" id="Laag_1" xmlns="http://www.w3.org/2000/svg" xmlns:xlink="http://www.w3.org/1999/xlink" x="0px" y="0px"
	 viewBox="0 0 80.68 50.13" style="enable-background:new 0 0 80.68 50.13;" xml:space="preserve">
<path d="M14.78,4.93l30.21,30.21c2.72,2.72,2.72,7.13,0,9.85l0,0c-2.72,2.72-7.13,2.72-9.85,0L4.93,14.78
	c-2.72-2.72-2.72-7.13,0-9.85l0,0C7.65,2.21,12.06,2.21,14.78,4.93z"/>
<path d="M75.18,14.75L44.97,44.96c-2.72,2.72-7.13,2.72-9.85,0l0,0c-2.72-2.72-2.72-7.13,0-9.85L65.33,4.9
	c2.72-2.72,7.13-2.72,9.85,0l0,0C77.9,7.62,77.9,12.03,75.18,14.75z"/>
</svg>
